<svg xmlns="http://www.w3.org/2000/svg" viewBox="0 0 16 16" width="32" height="32" shape-rendering="crispEdges">
  <!-- Background -->
  <rect width="16" height="16" fill="#C0C0C0" />
  <!-- 3D Bevel Borders -->
  <path d="M0 0h16v1H1v14H0z" fill="#FFF" />
  <path d="M15 1h1v15H0v-1h14z" fill="#808080" />
  <!-- Mine Body -->
  <!-- Center circle-ish shape -->
  <rect x="5" y="5" width="6" height="6" fill="#000" />
  <rect x="6" y="4" width="4" height="8" fill="#000" />
  <rect x="4" y="6" width="8" height="4" fill="#000" />
  <!-- Spikes -->
  <!-- Top spike -->
  <rect x="7" y="2" width="2" height="2" fill="#000" />
  <!-- Bottom spike -->
  <rect x="7" y="12" width="2" height="2" fill="#000" />
  <!-- Left spike -->
  <rect x="2" y="7" width="2" height="2" fill="#000" />
  <!-- Right spike -->
  <rect x="12" y="7" width="2" height="2" fill="#000" />
  <!-- Diagonals -->
  <rect x="3" y="3" width="2" height="2" fill="#000" />
  <rect x="11" y="3" width="2" height="2" fill="#000" />
  <rect x="3" y="11" width="2" height="2" fill="#000" />
  <rect x="11" y="11" width="2" height="2" fill="#000" />
  <!-- White highlight inside mine -->
  <rect x="6" y="6" width="2" height="2" fill="#FFF" />
  <!-- Red fuse tip or spark -->
  <rect x="9" y="3" width="1" height="1" fill="#F00" />
  <rect x="11" y="2" width="1" height="1" fill="#F00" />
  <rect x="12" y="4" width="1" height="1" fill="#F00" />
</svg>
